<svg width="1024" height="1024" viewBox="0 0 1024 1024" fill="none" xmlns="http://www.w3.org/2000/svg">
<rect width="1024" height="1024" fill="white"/>
<path d="M449.88 386H500.12V610H449.88V515.92H392.92V610H343V386H392.92V471.76H449.88V386ZM623.848 613.2C572.648 613.2 547.048 587.067 547.048 534.8V386H596.968V532.24C596.968 555.28 606.888 566.8 626.728 566.8C646.141 566.8 655.848 555.28 655.848 532.24V386H705.768V524.88C705.768 554.107 698.834 576.187 684.968 591.12C671.314 605.84 650.941 613.2 623.848 613.2ZM880.055 490C904.375 498.533 916.535 516.347 916.535 543.44C916.535 564.773 909.815 581.2 896.375 592.72C882.935 604.24 863.202 610 837.175 610H754.935V386H833.655C857.762 386 876.002 390.693 888.375 400.08C900.962 409.467 907.255 422.8 907.255 440.08C907.255 462.693 898.188 479.333 880.055 490ZM855.095 451.6C855.095 443.707 853.282 438.16 849.655 434.96C846.028 431.547 839.948 429.84 831.415 429.84H803.255V474.96H831.415C839.948 474.96 846.028 473.253 849.655 469.84C853.282 466.213 855.095 460.133 855.095 451.6ZM837.175 566.16C847.202 566.16 854.242 564.24 858.295 560.4C862.348 556.56 864.375 549.84 864.375 540.24C864.375 530 862.348 522.853 858.295 518.8C854.242 514.533 847.202 512.4 837.175 512.4H803.255V566.16H837.175Z" fill="#232529"/>
<circle cx="199.5" cy="499.5" r="110.5" fill="#232529"/>
<path d="M222.8 406.2V440.2H190V406.2H222.8ZM221.4 543.8H249V570H154.6V543.8H191.4V486.2H162V460H221.4V543.8Z" fill="white"/>
</svg>
