<svg width="1024" height="256" viewBox="0 0 1024 256" fill="none" xmlns="http://www.w3.org/2000/svg">
<g clip-path="url(#clip0_1_2)">
<path d="M0 100C0 44.7715 44.7715 0 100 0H1024V156C1024 211.228 979.228 256 924 256H0V100Z" fill="#232529"/>
<path d="M119.246 95.9H100.146V152.1H119.246V159H73.2461V152.1H92.4461V95.9H73.2461V89H119.246V95.9ZM167.511 103C177.178 103 182.011 108.333 182.011 119V159H174.711V120.2C174.711 116.467 173.978 113.733 172.511 112C171.044 110.267 168.644 109.4 165.311 109.4C162.111 109.4 159.078 110.4 156.211 112.4C153.344 114.4 150.011 117.9 146.211 122.9V159H138.911V104H144.511L145.811 117C151.811 107.667 159.044 103 167.511 103ZM204.376 148.8C210.709 151.667 216.942 153.1 223.076 153.1C232.142 153.1 236.676 150.333 236.676 144.8C236.676 142.2 235.542 140.167 233.276 138.7C231.076 137.233 228.376 136.133 225.176 135.4C221.976 134.667 218.776 133.867 215.576 133C212.442 132.067 209.742 130.467 207.476 128.2C205.276 125.867 204.176 122.8 204.176 119C204.176 114.267 205.842 110.433 209.176 107.5C212.576 104.5 217.576 103 224.176 103C230.376 103 236.276 104.2 241.876 106.6V113.6C236.142 111.067 230.476 109.8 224.876 109.8C216.076 109.8 211.676 112.633 211.676 118.3C211.676 121.033 212.776 123.167 214.976 124.7C217.242 126.233 219.976 127.367 223.176 128.1C226.376 128.833 229.542 129.633 232.676 130.5C235.876 131.367 238.576 132.933 240.776 135.2C243.042 137.467 244.176 140.5 244.176 144.3C244.176 148.967 242.442 152.767 238.976 155.7C235.509 158.567 230.309 160 223.376 160C216.376 160 210.042 158.633 204.376 155.9V148.8ZM309.541 110.6H284.741V140.8C284.741 145.133 285.674 148.267 287.541 150.2C289.407 152.133 292.541 153.1 296.941 153.1C301.207 153.1 305.407 152.2 309.541 150.4V157.5C305.274 159.167 300.874 160 296.341 160C290.007 160 285.274 158.4 282.141 155.2C279.007 152 277.441 147.533 277.441 141.8V110.6H263.841V105.8L277.441 104L279.341 91.7H284.741V104H309.541V110.6ZM376.405 110C366.405 110 357.872 113.233 350.805 119.7V152.4H371.405V159H329.405V152.4H343.505V110.6H332.405V104H349.005L350.405 114.9C353.339 110.967 357.205 107.833 362.005 105.5C366.805 103.167 371.605 102 376.405 102V110ZM431.87 123.9C431.87 118.833 430.737 115.2 428.47 113C426.27 110.733 422.704 109.6 417.77 109.6C411.77 109.6 407.504 111.3 404.97 114.7C402.504 118.033 401.27 123.667 401.27 131.6C401.27 139.267 402.57 144.767 405.17 148.1C407.837 151.433 412.27 153.1 418.47 153.1C424.937 153.1 431.07 151.1 436.87 147.1V154.4C431.137 158.133 424.737 160 417.67 160C410.004 160 404.07 157.667 399.87 153C395.737 148.333 393.67 141.667 393.67 133C393.67 123.333 395.77 115.933 399.97 110.8C404.237 105.6 410.27 103 418.07 103C424.604 103 429.77 104.867 433.57 108.6C437.437 112.267 439.37 117.367 439.37 123.9H431.87ZM494.035 104H501.335V159H495.835L494.435 145.9C488.435 155.3 481.235 160 472.835 160C463.102 160 458.235 154.633 458.235 143.9V104H465.535V142.7C465.535 146.433 466.268 149.167 467.735 150.9C469.268 152.633 471.702 153.5 475.035 153.5C478.235 153.5 481.235 152.533 484.035 150.6C486.902 148.6 490.235 145.1 494.035 140.1V104ZM565.4 110.6H540.6V140.8C540.6 145.133 541.533 148.267 543.4 150.2C545.267 152.133 548.4 153.1 552.8 153.1C557.067 153.1 561.267 152.2 565.4 150.4V157.5C561.133 159.167 556.733 160 552.2 160C545.867 160 541.133 158.4 538 155.2C534.867 152 533.3 147.533 533.3 141.8V110.6H519.7V105.8L533.3 104L535.2 91.7H540.6V104H565.4V110.6ZM616.665 82V94.1H605.665V82H616.665ZM614.865 152.4H629.865V159H587.865V152.4H607.565V110.6H590.865V104H614.865V152.4ZM670.93 160C663.73 160 658.23 157.667 654.43 153C650.63 148.267 648.73 141.567 648.73 132.9C648.73 123.167 650.796 115.767 654.93 110.7C659.13 105.567 665.13 103 672.93 103C680.13 103 685.63 105.333 689.43 110C693.296 114.667 695.23 121.333 695.23 130C695.23 139.733 693.13 147.167 688.93 152.3C684.73 157.433 678.73 160 670.93 160ZM671.93 153.1C677.596 153.1 681.63 151.4 684.03 148C686.43 144.6 687.63 139 687.63 131.2C687.63 123.4 686.43 117.9 684.03 114.7C681.63 111.433 677.596 109.8 671.93 109.8C666.33 109.8 662.33 111.5 659.93 114.9C657.53 118.3 656.33 123.9 656.33 131.7C656.33 139.5 657.53 145.033 659.93 148.3C662.33 151.5 666.33 153.1 671.93 153.1ZM743.195 103C752.861 103 757.695 108.333 757.695 119V159H750.395V120.2C750.395 116.467 749.661 113.733 748.195 112C746.728 110.267 744.328 109.4 740.995 109.4C737.795 109.4 734.761 110.4 731.895 112.4C729.028 114.4 725.695 117.9 721.895 122.9V159H714.595V104H720.195L721.495 117C727.495 107.667 734.728 103 743.195 103ZM808.759 89H824.459V159H808.759V129.6H790.959V159H775.359V89H790.959V115.8H808.759V89ZM863.124 160C847.124 160 839.124 151.833 839.124 135.5V89H854.724V134.7C854.724 141.9 857.824 145.5 864.024 145.5C870.091 145.5 873.124 141.9 873.124 134.7V89H888.724V132.4C888.724 141.533 886.558 148.433 882.224 153.1C877.958 157.7 871.591 160 863.124 160ZM943.189 121.5C950.789 124.167 954.589 129.733 954.589 138.2C954.589 144.867 952.489 150 948.289 153.6C944.089 157.2 937.922 159 929.789 159H904.089V89H928.689C936.222 89 941.922 90.4667 945.789 93.4C949.722 96.3333 951.689 100.5 951.689 105.9C951.689 112.967 948.856 118.167 943.189 121.5ZM935.389 109.5C935.389 107.033 934.822 105.3 933.689 104.3C932.556 103.233 930.656 102.7 927.989 102.7H919.189V116.8H927.989C930.656 116.8 932.556 116.267 933.689 115.2C934.822 114.067 935.389 112.167 935.389 109.5ZM929.789 145.3C932.922 145.3 935.122 144.7 936.389 143.5C937.656 142.3 938.289 140.2 938.289 137.2C938.289 134 937.656 131.767 936.389 130.5C935.122 129.167 932.922 128.5 929.789 128.5H919.189V145.3H929.789Z" fill="white"/>
</g>
<defs>
<clipPath id="clip0_1_2">
<path d="M0 100C0 44.7715 44.7715 0 100 0H1024V156C1024 211.228 979.228 256 924 256H0V100Z" fill="white"/>
</clipPath>
</defs>
</svg>
